<svg xmlns="http://www.w3.org/2000/svg" viewBox="0 0 1024 1024"><path fill="#F2F6FC" d="M1022.1 512.3c0 396.5-102.7 495.7-509.8 495.7S2.4 908.8 2.4 512.3 105.1 16.6 512.2 16.6s509.9 99.1 509.9 495.7z"/><linearGradient id="a" gradientUnits="userSpaceOnUse" x1="272.168" y1="512.281" x2="757.777" y2="512.281"><stop offset=".056" stop-color="#FF5E72"/><stop offset="1" stop-color="#F89458"/></linearGradient><path fill="url(#a)" d="M706.7 173.2h-51.1c-43.8 0-63.9 17.3-76.7 43.8L272.2 843.2c8.2 3.7 17.3 8.2 44.7 8.2h63.9c39.3 0 58.4-17.3 71.2-43.8l305.8-625.3c-11.9-6.4-24.7-9.1-51.1-9.1z"/><linearGradient id="b" gradientUnits="userSpaceOnUse" x1="760.972" y1="851.386" x2="760.972" y2="182.304"><stop offset=".419" stop-color="#FF8065"/><stop offset=".509" stop-color="#F7B5A1"/><stop offset=".621" stop-color="#ED8F70"/><stop offset=".744" stop-color="#E46B40"/><stop offset=".853" stop-color="#DD501D"/><stop offset=".942" stop-color="#D94008"/><stop offset="1" stop-color="#D73A00"/></linearGradient><path fill="url(#b)" d="M757.8 182.3l-76.7 156.1 64.8 132.4c8.2 16.4 12.8 29.2 12.8 41.1 0 11.9-4.6 23.7-12.8 41.1L604.4 843.2c9.1 4.6 21 8.2 37.4 8.2h69.4c34.7 0 55.7-11.9 70.3-35.6l125.1-256.5c7.3-16.4 11-31.9 11-47.5 0-16.4-4.6-33.8-13.7-52.9L786.1 217c-7.3-15.5-14.6-27.4-28.3-34.7z"/><linearGradient id="c" gradientUnits="userSpaceOnUse" x1="262.584" y1="173.177" x2="262.584" y2="843.171"><stop offset=".48" stop-color="#FF686E"/><stop offset=".576" stop-color="#EE0030"/><stop offset="1" stop-color="#C00000"/></linearGradient><path fill="url(#c)" d="M279.5 552.9c-8.2-16.4-11-27.4-11-41.1 0-11.9 3.7-26.5 11-41.1L418.2 185c-11.9-8.2-26.5-11.9-60.2-11.9h-47.5c-35.6 0-57.5 13.7-72.1 43.8L116.1 466.2c-6.4 16.4-9.1 31.9-9.1 46.6 0 16.4 3.7 32.9 11.9 50.2l119.6 244.6c8.2 16.4 19.2 29.2 33.8 35.6L347 690.7l-67.5-137.8z"/><path fill="#D71400" d="M418.2 185l-74.8 154.3L431 518.2h.9l79.4-163.4L443.8 217c-6.4-12.8-13.7-24.7-25.6-32z"/><path fill="#DD2B00" d="M591.6 521l-80.3 164.3 59.3 122.3c8.2 15.5 19.2 27.4 33.8 35.6l73-148.8L591.6 521z"/></svg>